<?xml version="1.0" encoding="utf-8"?>
<!-- Generator: Adobe Illustrator 22.0.1, SVG Export Plug-In . SVG Version: 6.00 Build 0)  -->
<svg version="1.1" id="Layer_1" xmlns="http://www.w3.org/2000/svg" xmlns:xlink="http://www.w3.org/1999/xlink" x="0px" y="0px"
	 viewBox="0 0 228.9 154.1" style="enable-background:new 0 0 228.9 154.1;" xml:space="preserve">
<style type="text/css">
	.st0{fill:#882F7D;}
</style>
<g>
	<g id="XMLID_17_">
		<path class="st0" d="M117.8,56.7c-0.7-1.2-5.5,0.4-5.5,0.4s0.6,2.8,0.6,6.6c0.1,6.5-3,15.4-5,15.5c-2.5,0-2-7.3-1.7-9.2
			c0.4-2.1,1.5-8.9,1.5-10.6c0-1-0.1-2-0.5-2.6c-0.4-0.6-2.2-0.8-5.5,0.4c1,3.5,0.7,5.4,0.2,8.6c-0.3,2.5-0.5,4.3-0.6,5.7
			c-0.2,2.6,0.2,6.6,2.3,9c0.9,1,2,1.6,3.3,1.6c2.8,0.1,4.7-2.5,5.7-4.5c0.1,1.7,0.4,5.1,0.5,5.5c-7.1,2-14.3,7.7-17.1,13.9
			c-0.8,1.9-1.3,3.7-1.3,5.5c0,1,0.2,2.1,0.5,3c0.1,0.3,2.2,6.5,9.8,5c6.7-1,11.6-7.7,12.3-15c0.5-5.2,0.4-9.2,0.1-13.7
			c-0.2-2.3-0.7-6.8-0.6-9.1c0.1-3.3,1.4-10.3,1.4-10.3C118.1,61.7,118.6,57.9,117.8,56.7z M119.2,56.3c2,1.9,3,4.4,3.2,9.4
			s-1.8,11.6-1.9,12c0.8,1.6,4.3,3.4,4.3,3.4c10.4-11.9,10.6-23,10.6-23c-2.8-2.1-5.3-2.7-5.3-2.7l0.1,2.1c0,4-1.2,10.2-4.4,15.4
			c0.4-2.4,0.9-6.1,0.9-8.1c0-4.5-1-7.3-3.3-9.3C122,55.5,119.2,56.3,119.2,56.3z M227.7,36.1c3.4,12.1-0.9,49-6.5,63.2
			c-1.3,3.2-4.5,6-8.6,6.8c-8.2,1.7-16,3.3-23.5,4.7l-29.4,43.3l12.2-40.2c-45.9,7.8-84.4,10.4-141.9,10.5c-6.5,0-9.7-2.7-11.6-6.4
			C7,96.6-4.1,23.9,1.5,5.5c1-3.1,2.4-4.1,5-4.6c28-6.3,195.7,22.1,217.6,30.9C226.3,32.7,227,33.6,227.7,36.1z M212.9,57.9
			c3,0,5.4-2.4,5.4-5.4c0-3-2.4-5.4-5.4-5.4c-3,0-5.4,2.4-5.4,5.4C207.5,55.5,209.9,57.9,212.9,57.9z M209.1,73.1l-1.6-1.3
			c0,0-2.1,4.4-4.2,4.4c-0.6,0-1.8-3.2-1.8-6.3c0-5.1,3.2-10.6,3.7-11.4c-0.5-2.6-3.5-3.2-3.5-3.2c-3.3,2.4-7.4,7.3-10.2,11.8
			c0.3-3,0.9-8.9,0.9-8.9s-1.6-2.4-5-2.9c-0.3,2.3-1.3,23.4-1.2,23.4c1,2,4.1,1.9,4.1,1.9s3.6-11.9,7.3-16.7
			c-1.7,4.2-1.5,6.8-1.5,6.9c0.1,6.3,3.4,9.8,5.1,9.8C204.8,80.5,209.1,73.1,209.1,73.1z M184.9,68.1L185,66c0-3.6-0.8-6.4-2.2-7.8
			c-0.6-0.6-1.3-0.9-1.9-0.9h-0.1c0,0-0.4,0.1-0.5,0.1c-1-1.1-2.1-2.1-4.6-2.1c-0.2,0,0,0-0.2,0.1c-4.1,2.5-6.9,8.1-7.3,14.6l0,1.4
			c0,3.1,0.9,5.7,2.5,7.2c1.2,1.2,2.9,1.8,4.9,1.8C181,80.5,184.4,76.1,184.9,68.1z M165.4,54.5c2,0.1,3.5-2.5,3.5-4.9
			c-0.1-2.7-1.6-4.9-3.5-4.9c-1,0-3.3,0.8-3.5,4.9C161.8,51.6,163.1,54.4,165.4,54.5z M164.9,80.5c0.2-1.9,1.9-22.2,2.1-22.4
			c-2.3-2.7-5-2.9-5-2.9s-1.5,22.7-1.2,23.5C161.1,79.9,163.3,80.6,164.9,80.5z M158.8,65.3l0.2-2.6c0-2.3-0.6-4-3.8-5.6
			c-0.8-1-2.2-1.6-3.6-1.7c-1.6,0-2.3,0.6-2.3,0.6c-2.6,2.1-4.6,5.6-4.9,8.7l0,0.7c0,2.9,2,5.4,5.4,6.7c2.8,1.1,3.3,1.5,3.3,2.5
			l0,0.4c-0.2,1.5-1.4,3.2-3.5,3.2c-0.8,0-1.6-0.5-2.3-1.5c-0.3-0.3-0.4-0.7-0.4-1.2l0-0.2c0,0,0-0.1,0-0.1c0.1-0.1,0.3-0.7,0.3-0.7
			v-0.2l-0.4-1c-0.3-0.4-0.8-0.6-1.2-0.6c-1.2,0-2.2,0.9-2.3,2.2c-0.1,1.3,0.2,2.4,1,3.4c1.1,1.3,3,2.1,5.2,2.1
			c4.7,0,8.3-2.1,8.6-5.2c0.3-3-1.8-3.8-4.4-4.9l-0.8-0.3c-2.7-1.1-3.6-2.3-3.3-4.7c0.4-3.4,2.1-6.2,3.8-6.2c0.5,0,0.7,0.2,0.8,0.3
			c0.2,0.2,0.4,0.7,0.4,1.7l-0.1,1.2l-0.3,2.1l-0.3,1.8l0,0.1c0.3,2,1.6,2.2,2.2,2.2c0.9,0,1.6-0.6,2.2-1.1l0.1-0.1l0.1-0.2l0-0.1
			C158.4,67.1,158.8,65.3,158.8,65.3z M141.2,54.5c2,0.1,3.5-2.5,3.5-4.9c-0.1-2.7-1.6-4.9-3.5-4.9c-1,0-3.3,0.8-3.5,4.9
			C137.6,51.6,138.9,54.4,141.2,54.5z M140.7,80.5c0.2-1.9,1.9-22.2,2.1-22.4c-2.3-2.7-5.1-2.9-5.1-2.9s-1.5,22.7-1.2,23.5
			C136.9,79.9,139.1,80.6,140.7,80.5z M103.3,28.1c-0.5-1.1-2.6-3.5-5.1-4.2c-3.8,9.6-4.6,36.9-5.3,54.6c0.7,1.8,3.3,2.2,4.2,2.1
			C98.7,58.3,100.1,41.3,103.3,28.1z M93.6,28.1c-0.5-1.1-2.6-3.5-5.1-4.2c-3.8,9.6-4.6,36.9-5.3,54.6c0.7,1.8,3.3,2.2,4.2,2.1
			C88.9,58.3,90.4,41.3,93.6,28.1z M81.7,72.9l-1.3-1.1c-3.2,5.8-5.1,6.4-5.8,6.4c-1.6,0-2.6-2.2-3-3.6c1.1-0.8,5-3.7,6.5-6.8
			c1-2,1.5-4.3,1.5-6.4c0-2.9-1.3-6.1-4.2-6.1c-6.9,0-9.5,8.5-9.9,12.9c-0.3,4.1,0.3,7.2,2.4,9.6c1.5,1.7,3.4,2.5,5.3,2.5
			C76.5,80.5,79.5,76.5,81.7,72.9z M62.5,79.5c2.5-19.8-4-43.1-14.4-52c-3.5-3-7.3-4.1-11-3c-3.7,1.1-12.6,8.1-9.2,27.5
			c4.2,23.8,25.4,24.2,25.4,24.2s1.7-1.1,1.9-1.3c0,1.1,0,3.3,0,3.5c-6.2,1.1-32.9,11.8-33.4,27c-0.3,8.1,10.5,7.9,14.5,6.9
			C47.8,109.5,60.2,98.3,62.5,79.5z"/>
		<path class="st0" d="M213.4,50c0.4,0,1.1,0.1,1.1,1.1c0,0.9-0.7,1.1-1.3,1.1h-2V50H213.4z"/>
		<path class="st0" d="M215.5,51c0-1.3-1-1.7-2.1-1.7h-2.9v6.3h0.9v-2.7h2.1c1,0,1.1,0.6,1.1,1.1c0,0.2,0,1.2,0.2,1.6h1v-0.1
			c-0.3-0.2-0.3-0.3-0.3-0.6l-0.1-1.2c0-0.9-0.4-1-0.8-1.2C215,52.3,215.5,51.9,215.5,51z M217.6,52.5c0,2.6-2.1,4.7-4.7,4.7
			c-2.6,0-4.7-2.1-4.7-4.7s2.1-4.7,4.7-4.7C215.5,47.8,217.6,49.9,217.6,52.5z"/>
		<path class="st0" d="M181.2,67.4l-0.1,2.2c-0.3,4-1.4,8.7-5.2,8.7c-0.6,0-1.2-0.2-1.6-0.6c-0.9-0.9-1.4-2.6-1.4-5
			c0-0.5,0-1.1,0.1-1.6c0.5-6.7,3.6-11,5.1-11c0.3,0,0.6,0.2,0.9,0.5l0.4,0.4c0,0,0.5-0.1,0.6-0.1C180.3,61,181.2,63.3,181.2,67.4z"
			/>
		<path class="st0" d="M113.1,86c0.6,7.1,0.2,19.2-10.1,20.9c-1.9,0.3-4.2-0.8-4.8-2.7c-0.2-0.8-0.4-1.7-0.4-2.5
			c0-1.4,0.4-2.9,1.1-4.4C101.7,91.6,109.8,86.9,113.1,86z"/>
		<path class="st0" d="M74.2,59.8c0.8,0,0.5,3.4,0,5.4c-0.7,2.7-2.3,4.6-3.5,6.1c-0.1-0.8-0.4-2.2,0-5.3
			C71.2,62.8,73.1,59.8,74.2,59.8z"/>
		<path class="st0" d="M55.4,74.3c-0.3-0.1-17.6-3.8-20.9-23.4c-2.2-13,1.2-21.1,3.7-21.7c5.5-1.4,9.9,10,13.2,20.1
			C54.5,58.5,55.2,68.7,55.4,74.3z"/>
		<path class="st0" d="M55.3,81c-0.4,7-5.1,24.6-23.2,27.3c-1.5,0.2-3.7,0.1-4.9-1.1c-0.6-0.7-1-1.5-1-2.7c0-0.4,0-0.8,0.1-1.2
			C28.4,95.4,38.9,85.4,55.3,81z"/>
	</g>
</g>
</svg>
