<svg width="182" height="118" viewBox="0 0 182 118" fill="none" xmlns="http://www.w3.org/2000/svg">
<g filter="url(#filter0_d)">
<g filter="url(#filter1_d)">
<path d="M21.0015 73.7046C21.1076 62.7299 31.2956 14 91 14C150.704 14 160.892 62.7299 160.999 73.7046C160.999 73.7716 160.999 73.8051 160.455 76.1764C157.914 87.2511 144.32 94.7557 133.594 91.0056C131.298 90.2027 127.733 87.9094 120.602 83.323C112.058 77.8275 101.987 73.7046 91 73.7046C80.0127 73.7046 69.9416 77.8275 61.3979 83.323C54.2674 87.9094 50.7021 90.2027 48.4056 91.0056C37.6796 94.7557 24.0863 87.2511 21.5447 76.1763C21.0005 73.8051 21.0009 73.7716 21.0015 73.7046Z" fill="#B4BFCE"/>
</g>
<mask id="mask0" mask-type="alpha" maskUnits="userSpaceOnUse" x="20" y="14" width="142" height="82">
<path d="M21.0014 73.7046C21.1075 62.7299 31.2955 14 90.9999 14C150.704 14 160.892 62.7299 160.998 73.7046C161.057 79.8061 161.087 82.8569 159.627 86.133C156.497 93.1586 148.035 97.2763 140.575 95.4047C137.096 94.5319 131.772 90.2731 121.122 81.7555C112.468 74.8337 102.211 69.5871 90.9999 69.5871C79.7887 69.5871 69.5314 74.8337 60.8774 81.7555C50.2283 90.2731 44.9038 94.5319 41.4249 95.4047C33.9646 97.2763 25.5033 93.1586 22.3728 86.133C20.913 82.8568 20.9425 79.8061 21.0014 73.7046Z" fill="#D0D0D0"/>
</mask>
<g mask="url(#mask0)">
</g>
<mask id="mask1" mask-type="alpha" maskUnits="userSpaceOnUse" x="20" y="14" width="142" height="82">
<path opacity="0.5" d="M21.0014 73.7046C21.1075 62.7299 31.2955 14 90.9999 14C150.704 14 160.892 62.7299 160.998 73.7046C161.057 79.8061 161.087 82.8569 159.627 86.133C156.497 93.1586 148.035 97.2763 140.575 95.4047C137.096 94.5319 131.772 90.2731 121.122 81.7555C112.468 74.8337 102.211 69.5871 90.9999 69.5871C79.7887 69.5871 69.5314 74.8337 60.8774 81.7555C50.2283 90.2731 44.9038 94.5319 41.4249 95.4047C33.9646 97.2763 25.5033 93.1586 22.3728 86.133C20.913 82.8568 20.9425 79.8061 21.0014 73.7046Z" fill="white"/>
</mask>
<g mask="url(#mask1)">
<path opacity="0.5" d="M7.76866 57.2344C7.89346 44.2439 7.76864 -13.4364 90.1181 -13.4364C172.468 -13.4364 172.343 44.2439 172.468 57.2344C172.588 69.7894 172.648 76.067 168.788 80.7123C165.863 84.2321 161.131 86.5291 156.556 86.6499C150.518 86.8094 142.172 80.107 125.479 66.7023C115.314 58.5396 103.274 52.3605 90.1181 52.3605C76.9618 52.3605 64.9222 58.5396 54.7574 66.7023C38.0646 80.107 29.7183 86.8094 23.6804 86.6499C19.1053 86.5291 14.3733 84.2321 11.4482 80.7123C7.58773 76.0669 7.64804 69.7894 7.76866 57.2344Z" fill="white"/>
</g>
<path fill-rule="evenodd" clip-rule="evenodd" d="M123.563 39.7621C117.448 35.8489 110.817 33.5582 105.412 33.5581C103.706 33.5581 102.323 32.1755 102.323 30.4699C102.323 28.7644 103.706 27.3818 105.412 27.3818C112.358 27.3818 120.139 30.2381 126.892 34.56C133.662 38.893 139.774 44.9369 143.173 51.7354C143.936 53.2609 143.318 55.1159 141.792 55.8787C140.267 56.6414 138.412 56.0231 137.649 54.4976C134.872 48.9436 129.66 43.6642 123.563 39.7621Z" fill="white"/>
</g>
<defs>
<filter id="filter0_d" x="0.980957" y="0" width="180.038" height="140.88" filterUnits="userSpaceOnUse" color-interpolation-filters="sRGB">
<feFlood flood-opacity="0" result="BackgroundImageFix"/>
<feColorMatrix in="SourceAlpha" type="matrix" values="0 0 0 0 0 0 0 0 0 0 0 0 0 0 0 0 0 0 127 0"/>
<feOffset dy="6"/>
<feGaussianBlur stdDeviation="10"/>
<feColorMatrix type="matrix" values="0 0 0 0 0 0 0 0 0 0 0 0 0 0 0 0 0 0 0.1 0"/>
<feBlend mode="normal" in2="BackgroundImageFix" result="effect1_dropShadow"/>
<feBlend mode="normal" in="SourceGraphic" in2="effect1_dropShadow" result="shape"/>
</filter>
<filter id="filter1_d" x="21.0015" y="14" width="139.997" height="81.9817" filterUnits="userSpaceOnUse" color-interpolation-filters="sRGB">
<feFlood flood-opacity="0" result="BackgroundImageFix"/>
<feColorMatrix in="SourceAlpha" type="matrix" values="0 0 0 0 0 0 0 0 0 0 0 0 0 0 0 0 0 0 127 0"/>
<feOffset dy="4"/>
<feColorMatrix type="matrix" values="0 0 0 0 0.100625 0 0 0 0 0.165375 0 0 0 0 0.2625 0 0 0 0.5 0"/>
<feBlend mode="normal" in2="BackgroundImageFix" result="effect1_dropShadow"/>
<feBlend mode="normal" in="SourceGraphic" in2="effect1_dropShadow" result="shape"/>
</filter>
</defs>
</svg>
