<svg width="102" height="65" fill="none" xmlns="http://www.w3.org/2000/svg"><g filter="url(#filter0_d)"><path d="M11 38.117C11.063 31.846 16.884 4 51 4s39.939 27.846 40 34.117c0 .038 0 .057-.311 1.412-1.452 6.329-9.22 10.617-15.35 8.474-1.312-.459-3.349-1.769-7.424-4.39-4.882-3.14-10.637-5.496-16.915-5.496-6.278 0-12.033 2.356-16.916 5.496-4.074 2.621-6.111 3.931-7.424 4.39-6.129 2.143-13.896-2.145-15.349-8.474-.31-1.355-.31-1.374-.31-1.412z" fill="#B4BFCE" filter="url(#filter1_d)"/><mask id="a" maskUnits="userSpaceOnUse" x="10" y="4" width="82" height="47"><path d="M11 38.117C11.062 31.846 16.884 4 51 4s39.939 27.846 40 34.117c.033 3.486.05 5.23-.784 7.102-1.79 4.014-6.624 6.367-10.887 5.298-1.988-.499-5.031-2.932-11.116-7.8-4.945-3.955-10.807-6.953-17.213-6.953-6.407 0-12.268 2.998-17.213 6.953-6.085 4.868-9.128 7.301-11.116 7.8-4.263 1.07-9.098-1.284-10.887-5.298-.834-1.872-.817-3.616-.783-7.102z" fill="#D0D0D0"/></mask><mask id="b" maskUnits="userSpaceOnUse" x="10" y="4" width="82" height="47"><path opacity=".5" d="M11 38.117C11.062 31.846 16.884 4 51 4s39.939 27.846 40 34.117c.033 3.486.05 5.23-.784 7.102-1.79 4.014-6.624 6.367-10.887 5.298-1.988-.499-5.031-2.932-11.116-7.8-4.945-3.955-10.807-6.953-17.213-6.953-6.407 0-12.268 2.998-17.213 6.953-6.085 4.868-9.128 7.301-11.116 7.8-4.263 1.07-9.098-1.284-10.887-5.298-.834-1.872-.817-3.616-.783-7.102z" fill="#fff"/></mask><g mask="url(#b)"><path opacity=".5" d="M3.44 28.705c.07-7.423 0-40.383 47.056-40.383 47.057 0 46.985 32.96 47.057 40.383.069 7.175.103 10.762-2.103 13.416-1.671 2.012-4.375 3.324-6.99 3.393-3.45.091-8.22-3.739-17.758-11.398-5.808-4.665-12.688-8.196-20.206-8.196-7.518 0-14.398 3.531-20.206 8.196-9.539 7.66-14.308 11.49-17.758 11.398-2.615-.069-5.319-1.381-6.99-3.393-2.206-2.654-2.172-6.241-2.103-13.416z" fill="#fff"/></g><path fill-rule="evenodd" clip-rule="evenodd" d="M69.607 18.721c-3.494-2.236-7.283-3.545-10.372-3.545a1.765 1.765 0 1 1 0-3.53c3.97 0 8.416 1.633 12.275 4.102 3.868 2.476 7.36 5.93 9.303 9.815a1.765 1.765 0 0 1-3.157 1.579c-1.586-3.174-4.565-6.191-8.049-8.42z" fill="#fff"/></g><defs><filter id="filter0_d" x=".989" y="0" width="100.022" height="77.646" filterUnits="userSpaceOnUse" color-interpolation-filters="sRGB"><feFlood flood-opacity="0" result="BackgroundImageFix"/><feColorMatrix in="SourceAlpha" values="0 0 0 0 0 0 0 0 0 0 0 0 0 0 0 0 0 0 127 0"/><feOffset dy="6"/><feGaussianBlur stdDeviation="5"/><feColorMatrix values="0 0 0 0 0 0 0 0 0 0 0 0 0 0 0 0 0 0 0.1 0"/><feBlend in2="BackgroundImageFix" result="effect1_dropShadow"/><feBlend in="SourceGraphic" in2="effect1_dropShadow" result="shape"/></filter><filter id="filter1_d" x="11.001" y="4" width="79.998" height="46.561" filterUnits="userSpaceOnUse" color-interpolation-filters="sRGB"><feFlood flood-opacity="0" result="BackgroundImageFix"/><feColorMatrix in="SourceAlpha" values="0 0 0 0 0 0 0 0 0 0 0 0 0 0 0 0 0 0 127 0"/><feOffset dy="2"/><feColorMatrix values="0 0 0 0 0.100625 0 0 0 0 0.165375 0 0 0 0 0.2625 0 0 0 0.5 0"/><feBlend in2="BackgroundImageFix" result="effect1_dropShadow"/><feBlend in="SourceGraphic" in2="effect1_dropShadow" result="shape"/></filter></defs></svg>