<svg fill="none" height="78" viewBox="0 0 92 78" width="92" xmlns="http://www.w3.org/2000/svg" xmlns:xlink="http://www.w3.org/1999/xlink"><filter id="a" color-interpolation-filters="sRGB" filterUnits="userSpaceOnUse" height="77.2922" width="92" x="0" y=".707764"><feFlood flood-opacity="0" result="BackgroundImageFix"/><feColorMatrix in="SourceAlpha" type="matrix" values="0 0 0 0 0 0 0 0 0 0 0 0 0 0 0 0 0 0 127 0"/><feOffset dy="6"/><feGaussianBlur stdDeviation="5"/><feColorMatrix type="matrix" values="0 0 0 0 0 0 0 0 0 0 0 0 0 0 0 0 0 0 0.1 0"/><feBlend in2="BackgroundImageFix" mode="normal" result="effect1_dropShadow"/><feBlend in="SourceGraphic" in2="effect1_dropShadow" mode="normal" result="shape"/></filter><g filter="url(#a)"><path d="m50.7553 15.4076-2.7924-9.96957c-.2727-.97373-1.6531-.97373-1.9258-.00001l-2.7924 9.96958c-.1467.5237-.685.8342-1.2118.6988l-10.3352-2.6561c-.9967-.2561-1.6838.9788-.9406 1.6907l7.4506 7.1369c.411.3937.411 1.0505 0 1.4442l-7.4506 7.1369c-.7432.7119-.0561 1.9469.9406 1.6907l10.3352-2.6561c.5268-.1354 1.0651.1751 1.2118.6988l2.7924 9.9696c.2727.9737 1.6531.9737 1.9258 0l2.7924-9.9696c.1467-.5237.685-.8342 1.2118-.6988l10.3352 2.6561c.9967.2562 1.6838-.9788.9406-1.6907l-7.4505-7.1369c-.4111-.3937-.4111-1.0505 0-1.4442l7.4505-7.1369c.7432-.7119.0561-1.9469-.9406-1.6907l-10.3352 2.6561c-.5268.1354-1.0651-.1751-1.2118-.6988z" fill="#bf2626"/><path d="m10 54h72v8h-72z" fill="#b3ddf2"/></g></svg>