<svg fill="none" height="78" width="92" xmlns="http://www.w3.org/2000/svg"><filter id="a" color-interpolation-filters="sRGB" filterUnits="userSpaceOnUse" height="77.292" width="92" x="0" y=".708"><feFlood flood-opacity="0" result="BackgroundImageFix"/><feColorMatrix in="SourceAlpha" values="0 0 0 0 0 0 0 0 0 0 0 0 0 0 0 0 0 0 127 0"/><feOffset dy="6"/><feGaussianBlur stdDeviation="5"/><feColorMatrix values="0 0 0 0 0 0 0 0 0 0 0 0 0 0 0 0 0 0 0.1 0"/><feBlend in2="BackgroundImageFix" result="effect1_dropShadow"/><feBlend in="SourceGraphic" in2="effect1_dropShadow" result="shape"/></filter><g filter="url(#a)"><path d="M50.755 15.408l-2.792-9.97c-.273-.974-1.653-.974-1.926 0l-2.792 9.97a1 1 0 0 1-1.212.698L31.698 13.45c-.997-.256-1.684.98-.94 1.691l7.45 7.137a1 1 0 0 1 0 1.444l-7.45 7.137c-.744.712-.057 1.947.94 1.69l10.335-2.655a1 1 0 0 1 1.212.698l2.792 9.97c.273.974 1.653.974 1.926 0l2.792-9.97a1 1 0 0 1 1.212-.698l10.335 2.656c.997.256 1.684-.98.94-1.691l-7.45-7.137a1 1 0 0 1 0-1.444l7.45-7.137c.744-.712.057-1.947-.94-1.69l-10.335 2.655a1 1 0 0 1-1.212-.698z" fill="#bf2626"/><path d="M10 54h72v8H10z" fill="#b3ddf2"/></g></svg>