<svg width="180" height="169" viewBox="0 0 180 169" fill="none" xmlns="http://www.w3.org/2000/svg">
<g filter="url(#filter0_dd)">
<path d="M141.063 132.997L97.7776 60.859L143.768 83.2468L160 142.947L141.063 132.997Z" fill="#DD2E2E"/>
<path d="M66.6667 142.947L72.7161 98.0553L99.9383 65.9895L102.963 115.157L66.6667 142.947Z" fill="#AB0000"/>
<path fill-rule="evenodd" clip-rule="evenodd" d="M37.3014 50.7136C23.7419 77.1703 24.6824 112.268 24.326 137.817L20 137.752C20.3647 111.604 19.5521 71.3137 33.479 44.1401C40.4069 30.6228 48.9934 19.8395 59.152 16.0959C64.3143 14.1935 69.2593 13.2724 77.037 14.6842C84.8148 16.096 105.556 30.0757 113.333 53.163L90 35.2062C82.9744 30.5469 79.2043 26.8154 74.4444 24.9451C69.7323 23.0936 64.7994 23.2429 60.6037 24.7891C52.0463 27.9427 44.1167 37.4158 37.3014 50.7136Z" fill="#DD2E2E"/>
<path fill-rule="evenodd" clip-rule="evenodd" d="M60.1624 60.8943C52.7897 86.1531 50.9809 118.48 50.736 142.947L45.9258 142.909C46.1708 118.44 47.9698 81.3463 55.5071 55.5231C57.3962 49.051 59.6663 43.2117 62.4074 38.4241C65.1355 33.6594 68.4233 29.7715 72.444 27.4093C76.5694 24.9857 81.135 25.6304 86.5472 25.6303C105.555 25.6303 112.663 55.5668 118.518 60.8943L97.7776 55.5231C95.185 42.9021 92.2812 36.8393 85.8517 35.2063C81.8386 34.1871 77.0369 33.6832 74.4443 35.2063C71.4004 36.9946 69.2317 40.229 66.6916 44.6655C64.1646 49.079 62.0008 54.5959 60.1624 60.8943Z" fill="#DD2E2E"/>
<path d="M92.5925 83.5217C98.6419 77.542 98.6419 60.0658 96.6255 50.5979C108.724 60.3149 128.889 58.7059 128.889 58.7059C128.889 58.7059 123.704 68.5547 115.926 89.0769C108.364 80.1073 103.179 79.0369 92.5925 83.5217Z" fill="#DD2E2E"/>
</g>
<defs>
<filter id="filter0_dd" x="0" y="0" width="180" height="168.947" filterUnits="userSpaceOnUse" color-interpolation-filters="sRGB">
<feFlood flood-opacity="0" result="BackgroundImageFix"/>
<feColorMatrix in="SourceAlpha" type="matrix" values="0 0 0 0 0 0 0 0 0 0 0 0 0 0 0 0 0 0 127 0"/>
<feOffset dy="4"/>
<feColorMatrix type="matrix" values="0 0 0 0 0.635294 0 0 0 0 0.12549 0 0 0 0 0.12549 0 0 0 1 0"/>
<feBlend mode="normal" in2="BackgroundImageFix" result="effect1_dropShadow"/>
<feColorMatrix in="SourceAlpha" type="matrix" values="0 0 0 0 0 0 0 0 0 0 0 0 0 0 0 0 0 0 127 0"/>
<feOffset dy="6"/>
<feGaussianBlur stdDeviation="10"/>
<feColorMatrix type="matrix" values="0 0 0 0 0 0 0 0 0 0 0 0 0 0 0 0 0 0 0.1 0"/>
<feBlend mode="normal" in2="effect1_dropShadow" result="effect2_dropShadow"/>
<feBlend mode="normal" in="SourceGraphic" in2="effect2_dropShadow" result="shape"/>
</filter>
</defs>
</svg>
