<svg width="100" height="94" fill="none" xmlns="http://www.w3.org/2000/svg"><g filter="url(#filter0_d)" fill="#DD2E2E"><path d="M79.179 71.998L54.444 30.776l26.28 12.793L90 77.684l-10.821-5.686zM36.667 77.684l3.456-25.652L55.68 33.708l1.728 28.096-20.74 15.88z"/><path fill-rule="evenodd" clip-rule="evenodd" d="M19.887 24.98c-7.749 15.117-7.211 35.173-7.415 49.772L10 74.716c.208-14.942-.256-37.965 7.702-53.493 3.96-7.724 8.866-13.886 14.67-16.025 2.95-1.087 5.776-1.614 10.22-.807 4.445.807 16.297 8.795 20.741 21.988L50 16.118c-4.015-2.663-6.169-4.795-8.889-5.864a11.114 11.114 0 0 0-7.909-.089c-4.89 1.802-9.421 7.215-13.315 14.814z"/><path fill-rule="evenodd" clip-rule="evenodd" d="M32.95 30.797c-4.213 14.433-5.247 32.906-5.387 46.887l-2.748-.022c.14-13.982 1.168-35.178 5.475-49.935 1.08-3.698 2.377-7.035 3.943-9.77 1.559-2.723 3.438-4.945 5.735-6.295 2.357-1.385 4.966-1.016 8.059-1.016 10.862 0 14.923 17.106 18.27 20.15l-11.853-3.069c-1.481-7.212-3.14-10.676-6.814-11.61-2.294-.582-5.038-.87-6.519 0-1.74 1.023-2.979 2.871-4.43 5.406-1.444 2.522-2.68 5.675-3.731 9.274z"/><path d="M51.481 43.727c3.457-3.417 3.457-13.404 2.305-18.814 6.914 5.553 18.436 4.633 18.436 4.633s-2.963 5.628-7.407 17.355c-4.321-5.125-7.284-5.737-13.334-3.174z"/></g><defs><filter id="filter0_d" x="0" y="0" width="100" height="93.684" filterUnits="userSpaceOnUse" color-interpolation-filters="sRGB"><feFlood flood-opacity="0" result="BackgroundImageFix"/><feColorMatrix in="SourceAlpha" values="0 0 0 0 0 0 0 0 0 0 0 0 0 0 0 0 0 0 127 0"/><feOffset dy="6"/><feGaussianBlur stdDeviation="5"/><feColorMatrix values="0 0 0 0 0 0 0 0 0 0 0 0 0 0 0 0 0 0 0.1 0"/><feBlend in2="BackgroundImageFix" result="effect1_dropShadow"/><feBlend in="SourceGraphic" in2="effect1_dropShadow" result="shape"/></filter></defs></svg>