<svg width="180" height="150" fill="none" xmlns="http://www.w3.org/2000/svg"><g filter="url(#filter0_dd)"><path d="M20 19a3 3 0 0 1 3-3h26.732a1 1 0 0 1 1 1v107.268a1 1 0 0 1-1 1H23a3 3 0 0 1-3-3V19z" fill="#fff"/><path d="M21 19a2 2 0 0 1 2-2h26.732v107.268H23a2 2 0 0 1-2-2V19z" stroke="#000" stroke-opacity=".2" stroke-width="2"/><mask id="a" fill="#fff"><rect x="48.171" y="16" width="29.024" height="109.268" rx="1"/></mask><rect x="48.171" y="16" width="29.024" height="109.268" rx="1" fill="#fff" stroke="#000" stroke-opacity=".2" stroke-width="4" mask="url(#a)"/><mask id="b" fill="#fff"><rect x="74.634" y="16" width="29.024" height="109.268" rx="1"/></mask><rect x="74.634" y="16" width="29.024" height="109.268" rx="1" fill="#fff" stroke="#000" stroke-opacity=".2" stroke-width="4" mask="url(#b)"/><path d="M101.098 17a1 1 0 0 1 1-1h26.731a3 3 0 0 1 3 3v103.268a3 3 0 0 1-3 3h-26.731a1 1 0 0 1-1-1V17z" fill="#fff"/><path d="M102.098 17h26.731a2 2 0 0 1 2 2v103.268a2 2 0 0 1-2 2h-26.731V17z" stroke="#000" stroke-opacity=".2" stroke-width="2"/><path d="M129.268 17a1 1 0 0 1 1-1H157a3 3 0 0 1 3 3v103.268a3 3 0 0 1-3 3h-26.732a1 1 0 0 1-1-1V17z" fill="#fff"/><path d="M130.268 17H157a2 2 0 0 1 2 2v103.268a2 2 0 0 1-2 2h-26.732V17z" stroke="#000" stroke-opacity=".2" stroke-width="2"/><path d="M40.488 16h18.78v69.707a2 2 0 0 1-2 2h-14.78a2 2 0 0 1-2-2V16z" fill="#000" filter="url(#filter1_d)"/><path d="M66.951 16h18.78v69.707a2 2 0 0 1-2 2h-14.78a2 2 0 0 1-2-2V16z" fill="#000" filter="url(#filter2_d)"/><path d="M120.732 16h18.78v69.707a2 2 0 0 1-2 2h-14.78a2 2 0 0 1-2-2V16z" fill="#000" filter="url(#filter3_d)"/></g><defs><filter id="filter0_dd" x="0" y="0" width="180" height="149.268" filterUnits="userSpaceOnUse" color-interpolation-filters="sRGB"><feFlood flood-opacity="0" result="BackgroundImageFix"/><feColorMatrix in="SourceAlpha" values="0 0 0 0 0 0 0 0 0 0 0 0 0 0 0 0 0 0 127 0"/><feOffset dy="4"/><feGaussianBlur stdDeviation="10"/><feColorMatrix values="0 0 0 0 0 0 0 0 0 0 0 0 0 0 0 0 0 0 0.1 0"/><feBlend in2="BackgroundImageFix" result="effect1_dropShadow"/><feColorMatrix in="SourceAlpha" values="0 0 0 0 0 0 0 0 0 0 0 0 0 0 0 0 0 0 127 0"/><feOffset dy="4"/><feColorMatrix values="0 0 0 0 0.521569 0 0 0 0 0.556863 0 0 0 0 0.603922 0 0 0 1 0"/><feBlend in2="effect1_dropShadow" result="effect2_dropShadow"/><feBlend in="SourceGraphic" in2="effect2_dropShadow" result="shape"/></filter><filter id="filter1_d" x="36.488" y="16" width="26.78" height="79.707" filterUnits="userSpaceOnUse" color-interpolation-filters="sRGB"><feFlood flood-opacity="0" result="BackgroundImageFix"/><feColorMatrix in="SourceAlpha" values="0 0 0 0 0 0 0 0 0 0 0 0 0 0 0 0 0 0 127 0"/><feOffset dy="4"/><feGaussianBlur stdDeviation="2"/><feColorMatrix values="0 0 0 0 0 0 0 0 0 0 0 0 0 0 0 0 0 0 0.25 0"/><feBlend in2="BackgroundImageFix" result="effect1_dropShadow"/><feBlend in="SourceGraphic" in2="effect1_dropShadow" result="shape"/></filter><filter id="filter2_d" x="62.951" y="16" width="26.78" height="79.707" filterUnits="userSpaceOnUse" color-interpolation-filters="sRGB"><feFlood flood-opacity="0" result="BackgroundImageFix"/><feColorMatrix in="SourceAlpha" values="0 0 0 0 0 0 0 0 0 0 0 0 0 0 0 0 0 0 127 0"/><feOffset dy="4"/><feGaussianBlur stdDeviation="2"/><feColorMatrix values="0 0 0 0 0 0 0 0 0 0 0 0 0 0 0 0 0 0 0.25 0"/><feBlend in2="BackgroundImageFix" result="effect1_dropShadow"/><feBlend in="SourceGraphic" in2="effect1_dropShadow" result="shape"/></filter><filter id="filter3_d" x="116.732" y="16" width="26.78" height="79.707" filterUnits="userSpaceOnUse" color-interpolation-filters="sRGB"><feFlood flood-opacity="0" result="BackgroundImageFix"/><feColorMatrix in="SourceAlpha" values="0 0 0 0 0 0 0 0 0 0 0 0 0 0 0 0 0 0 127 0"/><feOffset dy="4"/><feGaussianBlur stdDeviation="2"/><feColorMatrix values="0 0 0 0 0 0 0 0 0 0 0 0 0 0 0 0 0 0 0.25 0"/><feBlend in2="BackgroundImageFix" result="effect1_dropShadow"/><feBlend in="SourceGraphic" in2="effect1_dropShadow" result="shape"/></filter></defs></svg>