<svg width="98" height="82" fill="none" xmlns="http://www.w3.org/2000/svg"><g filter="url(#filter0_d)"><path d="M11.333 46L88 35.065V57.33a2 2 0 0 1-1.842 1.994l-73.714 5.854L11.334 46z" fill="#EDC08A" filter="url(#filter1_d)"/><path d="M11.333 46l73.445-7.491v16.748c0 .362-.201.686-.548.786-.511.147-1.42.334-2.897.416-1.735.097-4.833.449-9.833.949-5 .5-9.5-1.408-13.5.092S47 62 42.5 60.797C38 59.594 38 58 34 59c-4 1-5 5-10 5s-6-3.318-8.222-3.318c-.665 0-1.33.432-1.937 1.037-.758.758-2.508.298-2.508-.774V54.11 46z" fill="#FFFCDD" filter="url(#filter2_d)"/><path fill-rule="evenodd" clip-rule="evenodd" d="M45.778 10.62c.36-1.805-.694-6.963 1.11-6.602 9.403 1.88 33.926 14.211 40.897 27.343.146.275.215.585.215.897 0 8.454-.04 8.409-2.222 8.409-14.766-25.556-40-27.825-40-30.047z" fill="#CB7F5A"/><path d="M85 35a2 2 0 0 1 2-2h1v20h-3V35z" fill="#EDC08A"/><path d="M65.778 19.555c-9.424-5.14-20-8.935-20-8.935s-5.245 7.422-10 12.269c-4.322 4.405-10 7.778-13.351 11.111-2.184 2.172-7.649 8.073-11.19 11.92-.735.797.25 2.28 1.297 2.002 2.104-.559 4.782-1.087 7.688-1.213C22.674 46.603 35.778 48 45.778 44.5c12.685-4.44 24.222-1 27.778-1.201C77.11 43.098 85 42.5 85 39.5s-7-13.278-19.222-19.945z" fill="#BF2626" filter="url(#filter3_i)"/></g><defs><filter id="filter0_d" x="-2" y="0" width="100" height="81.178" filterUnits="userSpaceOnUse" color-interpolation-filters="sRGB"><feFlood flood-opacity="0" result="BackgroundImageFix"/><feColorMatrix in="SourceAlpha" values="0 0 0 0 0 0 0 0 0 0 0 0 0 0 0 0 0 0 127 0"/><feOffset dy="6"/><feGaussianBlur stdDeviation="5"/><feColorMatrix values="0 0 0 0 0 0 0 0 0 0 0 0 0 0 0 0 0 0 0.1 0"/><feBlend in2="BackgroundImageFix" result="effect1_dropShadow"/><feBlend in="SourceGraphic" in2="effect1_dropShadow" result="shape"/></filter><filter id="filter1_d" x="11.333" y="35.065" width="76.667" height="32.113" filterUnits="userSpaceOnUse" color-interpolation-filters="sRGB"><feFlood flood-opacity="0" result="BackgroundImageFix"/><feColorMatrix in="SourceAlpha" values="0 0 0 0 0 0 0 0 0 0 0 0 0 0 0 0 0 0 127 0"/><feOffset dy="2"/><feColorMatrix values="0 0 0 0 0.717647 0 0 0 0 0.419608 0 0 0 0 0.27451 0 0 0 1 0"/><feBlend in2="BackgroundImageFix" result="effect1_dropShadow"/><feBlend in="SourceGraphic" in2="effect1_dropShadow" result="shape"/></filter><filter id="filter2_d" x="11.333" y="38.509" width="73.444" height="26.991" filterUnits="userSpaceOnUse" color-interpolation-filters="sRGB"><feFlood flood-opacity="0" result="BackgroundImageFix"/><feColorMatrix in="SourceAlpha" values="0 0 0 0 0 0 0 0 0 0 0 0 0 0 0 0 0 0 127 0"/><feOffset dy="1.5"/><feColorMatrix values="0 0 0 0 1 0 0 0 0 0.937667 0 0 0 0 0.816667 0 0 0 1 0"/><feBlend in2="BackgroundImageFix" result="effect1_dropShadow"/><feBlend in="SourceGraphic" in2="effect1_dropShadow" result="shape"/></filter><filter id="filter3_i" x="10.982" y="10.62" width="74.018" height="37.337" filterUnits="userSpaceOnUse" color-interpolation-filters="sRGB"><feFlood flood-opacity="0" result="BackgroundImageFix"/><feBlend in="SourceGraphic" in2="BackgroundImageFix" result="shape"/><feColorMatrix in="SourceAlpha" values="0 0 0 0 0 0 0 0 0 0 0 0 0 0 0 0 0 0 127 0" result="hardAlpha"/><feOffset dx="-12" dy="3"/><feComposite in2="hardAlpha" operator="arithmetic" k2="-1" k3="1"/><feColorMatrix values="0 0 0 0 0 0 0 0 0 0 0 0 0 0 0 0 0 0 0.15 0"/><feBlend in2="shape" result="effect1_innerShadow"/></filter></defs></svg>