<svg width="149" height="240" fill="none" xmlns="http://www.w3.org/2000/svg"><g filter="url(#filter0_d)"><path d="M71.205 108.757C66.08 92.485 57.612 77.772 57.572 80.131c-.039 2.36 7.212 15.909 11.204 28.587 3.992 12.678 6.41 38.371 6.51 46.182.1 7.81.212 16.515-.477 21.244-.688 4.728-4.926 19.213-4.836 26.291.09 7.078 6.914 11.438 12.397 11.368 5.483-.07 11.767-2.51 11.676-9.588-.09-7.078-3.03-14.12-6.618-23.755-2.604-6.99-7.462-30.391-8.384-35.126-.922-4.735-2.714-20.304-7.84-36.577z" fill="#828A96"/><g filter="url(#filter1_d)"><path d="M118.207 55.157c.223-10.31-4.273-23.517-5.641-36.813L84.358 132.298c.923-3.726 9.337-21.277 19.184-36.715 7.613-11.937 14.358-26.22 14.665-40.425z" fill="#00714D"/><path d="M118.207 55.157c.223-10.31-4.273-23.517-5.641-36.813L84.358 132.298c.923-3.726 9.337-21.277 19.184-36.715 7.613-11.937 14.358-26.22 14.665-40.425z" fill="#008561"/></g><g filter="url(#filter2_d)"><path d="M89.15 47.965c4.811-9.176 15.609-18.597 23.417-29.621L84.359 132.298c.922-3.727 1.322-23.261-.698-41.637-1.563-14.208-1.139-30.055 5.49-42.696z" fill="#008561"/><path d="M89.15 47.965c4.811-9.176 15.609-18.597 23.417-29.621L84.359 132.298c.922-3.727 1.322-23.261-.698-41.637-1.563-14.208-1.139-30.055 5.49-42.696z" fill="#00714D"/></g><path d="M40.462 65.493c.054-5.027.155-14.465 4.764-38.927l33.13 112.504c-1.083-3.68-15.96-17.44-26.265-34.184-12.615-20.497-11.713-31.443-11.629-39.393z" fill="#00714D" filter="url(#filter3_d)"/><path d="M72.373 54.377c-5.594-8.832-18.089-17.38-27.147-27.81l33.13 112.503c-1.083-3.679-1.65-23.361.577-42.087 1.723-14.48 1.147-30.437-6.56-42.606z" fill="#008561"/><g filter="url(#filter4_d)"><path d="M95.532 81.297c2.717-8.758 4.727-13.838 4.925-10.996.197 2.843-2.52 11.602-5.236 20.36-1.318 4.25-3.395 10.445-4.747 16.527-1.434 6.45-2.12 12.772-2.576 16.485-.433 3.531-.82 11.514-1.114 19.575-.305 8.41-.16 30.98-.206 34.594 0 0-7.704-22.638-6.695-28.421.553-3.176 4.427-27.302 8.232-42.264 3.124-12.285 6.192-21.911 7.417-25.86z" fill="url(#paint0_linear)"/><path d="M86.088 174.755l-.002-3.876c-.008-8.388-.02-21.64.199-27.65.293-8.053.68-16.06 1.117-19.617.048-.386.098-.801.15-1.242.457-3.788 1.143-9.487 2.434-15.29 1.124-5.056 2.747-10.191 4.018-14.212.264-.837.513-1.626.74-2.355 1.359-4.382 2.714-8.752 3.705-12.382.496-1.815.898-3.437 1.164-4.778.252-1.266.373-2.243.351-2.887a13.21 13.21 0 0 0-.566 1.18c-.855 1.983-2.03 5.42-3.388 9.8l-.36 1.153c-1.398 4.484-4.201 13.474-7.05 24.682-3.362 13.219-6.779 33.612-7.906 40.34-.147.875-.255 1.518-.319 1.886-.114.656-.11 1.589.003 2.747.112 1.15.327 2.492.616 3.95.576 2.917 1.44 6.275 2.34 9.46a262.813 262.813 0 0 0 2.754 9.091zM100.31 69.97l-.004.003a.015.015 0 0 0 .004-.004z" stroke="#000" stroke-opacity=".2" stroke-linecap="round"/></g><g filter="url(#filter5_d)"><path d="M70.996 105.209C65.87 88.937 59.552 72.2 59.513 74.559c-.04 2.36 5.403 17.972 9.395 30.65 3.992 12.678 6.234 38.372 6.334 46.182.1 7.811.21 16.516-.477 21.244-.688 4.728-4.947 17.665-4.836 26.291.11 8.626 6.913 11.439 12.396 11.369 5.483-.07 11.767-2.511 11.676-9.589-.09-7.078-3.03-14.119-6.618-23.755-2.603-6.989-7.462-30.39-8.384-35.126-.922-4.735-2.878-20.343-8.003-36.616z" fill="url(#paint1_linear)"/><path d="M60.884 78.424c-.132-.462-.25-.892-.354-1.286.63 1.466 1.434 3.5 2.35 5.935 2.221 5.915 5.079 14.158 7.639 22.286 4.106 13.04 6.17 25.635 7.305 32.564.278 1.699.501 3.057.684 3.998.462 2.373 1.908 9.412 3.565 16.732 1.653 7.306 3.526 14.94 4.841 18.473.366.98.724 1.933 1.072 2.86 3.091 8.226 5.435 14.464 5.515 20.727.043 3.361-1.414 5.586-3.526 7-2.138 1.432-4.974 2.047-7.656 2.082-2.665.034-5.62-.635-7.91-2.326-2.269-1.675-3.927-4.386-3.98-8.549-.055-4.247.969-9.585 2.105-14.488.415-1.789.843-3.511 1.236-5.096l.419-1.692c.493-2.008.894-3.727 1.07-4.937.694-4.767.583-13.496.483-21.272v-.05c-.05-3.93-.638-12.325-1.711-21.319-1.072-8.988-2.635-18.62-4.646-25.007-1.194-3.79-2.518-7.848-3.787-11.732-.852-2.611-1.68-5.144-2.423-7.465-.927-2.89-1.727-5.453-2.291-7.438z" stroke="#000" stroke-opacity=".2" stroke-linecap="round"/></g></g><defs><filter id="filter0_d" x="0" y="0" width="148.663" height="240" filterUnits="userSpaceOnUse" color-interpolation-filters="sRGB"><feFlood flood-opacity="0" result="BackgroundImageFix"/><feColorMatrix in="SourceAlpha" values="0 0 0 0 0 0 0 0 0 0 0 0 0 0 0 0 0 0 127 0"/><feOffset dy="6"/><feGaussianBlur stdDeviation="10"/><feColorMatrix values="0 0 0 0 0 0 0 0 0 0 0 0 0 0 0 0 0 0 0.1 0"/><feBlend in2="BackgroundImageFix" result="effect1_dropShadow"/><feBlend in="SourceGraphic" in2="effect1_dropShadow" result="shape"/></filter><filter id="filter1_d" x="74.221" y="14.344" width="64.442" height="138.493" filterUnits="userSpaceOnUse" color-interpolation-filters="sRGB"><feFlood flood-opacity="0" result="BackgroundImageFix"/><feColorMatrix in="SourceAlpha" values="0 0 0 0 0 0 0 0 0 0 0 0 0 0 0 0 0 0 127 0"/><feOffset dy="6"/><feGaussianBlur stdDeviation="5"/><feColorMatrix values="0 0 0 0 0 0 0 0 0 0 0 0 0 0 0 0 0 0 0.1 0"/><feBlend in2="BackgroundImageFix" result="effect1_dropShadow"/><feBlend in="SourceGraphic" in2="effect1_dropShadow" result="shape"/></filter><filter id="filter2_d" x="56.674" y="10" width="65.893" height="138.852" filterUnits="userSpaceOnUse" color-interpolation-filters="sRGB"><feFlood flood-opacity="0" result="BackgroundImageFix"/><feColorMatrix in="SourceAlpha" values="0 0 0 0 0 0 0 0 0 0 0 0 0 0 0 0 0 0 127 0"/><feOffset dy="6"/><feGaussianBlur stdDeviation="5"/><feColorMatrix values="0 0 0 0 0 0 0 0 0 0 0 0 0 0 0 0 0 0 0.1 0"/><feBlend in2="BackgroundImageFix" result="effect1_dropShadow"/><feBlend in="SourceGraphic" in2="effect1_dropShadow" result="shape"/></filter><filter id="filter3_d" x="10" y="22.566" width="78.517" height="140.479" filterUnits="userSpaceOnUse" color-interpolation-filters="sRGB"><feFlood flood-opacity="0" result="BackgroundImageFix"/><feColorMatrix in="SourceAlpha" values="0 0 0 0 0 0 0 0 0 0 0 0 0 0 0 0 0 0 127 0"/><feOffset dy="6"/><feGaussianBlur stdDeviation="5"/><feColorMatrix values="0 0 0 0 0 0 0 0 0 0 0 0 0 0 0 0 0 0 0.1 0"/><feBlend in2="BackgroundImageFix" result="effect1_dropShadow"/><feBlend in="SourceGraphic" in2="effect1_dropShadow" result="shape"/></filter><filter id="filter4_d" x="64.244" y="65.493" width="53.582" height="128.691" filterUnits="userSpaceOnUse" color-interpolation-filters="sRGB"><feFlood flood-opacity="0" result="BackgroundImageFix"/><feColorMatrix in="SourceAlpha" values="0 0 0 0 0 0 0 0 0 0 0 0 0 0 0 0 0 0 127 0"/><feOffset dy="6"/><feGaussianBlur stdDeviation="5"/><feColorMatrix values="0 0 0 0 0 0 0 0 0 0 0 0 0 0 0 0 0 0 0.1 0"/><feBlend in2="BackgroundImageFix" result="effect1_dropShadow"/><feBlend in="SourceGraphic" in2="effect1_dropShadow" result="shape"/></filter><filter id="filter5_d" x="47.254" y="70.335" width="58.853" height="156.159" filterUnits="userSpaceOnUse" color-interpolation-filters="sRGB"><feFlood flood-opacity="0" result="BackgroundImageFix"/><feColorMatrix in="SourceAlpha" values="0 0 0 0 0 0 0 0 0 0 0 0 0 0 0 0 0 0 127 0"/><feOffset dy="6"/><feGaussianBlur stdDeviation="5"/><feColorMatrix values="0 0 0 0 0 0 0 0 0 0 0 0 0 0 0 0 0 0 0.1 0"/><feBlend in2="BackgroundImageFix" result="effect1_dropShadow"/><feBlend in="SourceGraphic" in2="effect1_dropShadow" result="shape"/></filter><linearGradient id="paint0_linear" x1="99.129" y1="77.716" x2="82.611" y2="202.975" gradientUnits="userSpaceOnUse"><stop stop-color="#008561"/><stop offset=".838" stop-color="#A60063"/><stop offset=".839" stop-color="#fff"/></linearGradient><linearGradient id="paint1_linear" x1="59.697" y1="82.671" x2="136.096" y2="157.142" gradientUnits="userSpaceOnUse"><stop stop-color="#008561"/><stop offset=".838" stop-color="#A60063"/><stop offset=".839" stop-color="#fff"/></linearGradient></defs></svg>