<svg width="72" height="86" viewBox="0 0 72 86" fill="none" xmlns="http://www.w3.org/2000/svg">
<path d="M55.232 59.7618L55.4652 61.0847L22.6383 66.873L22.3969 65.5041C21.7402 61.8561 21.5302 59.7438 25.5607 58.0312C29.9755 56.1561 34.3547 54.4057 31.4577 50.7601C22.879 39.9624 26.314 32.3773 33.2635 31.1519C40.0817 29.9497 45.9708 35.63 41.6701 48.9593C40.2524 53.3387 44.8026 53.518 49.6983 53.7751C54.0852 54.0068 54.5995 56.079 55.232 59.7618ZM43.5001 12.4232L44.6578 18.9885L54.5059 17.2521L63.7671 69.7751L17.8094 77.8787L8.54817 25.3556L18.3963 23.6192L17.2386 17.0538L0.825136 19.9479L12.4017 85.6018L71.4901 75.1829L59.9136 9.52902L43.5001 12.4232ZM21.4887 2.76535L24.9616 22.4615L38.0924 20.1462L34.6194 0.450039L21.4887 2.76535ZM30.3694 14.7385C28.554 15.0586 26.8274 13.8466 26.5078 12.0346C26.1883 10.2226 27.3964 8.49317 29.2117 8.17308C31.027 7.85299 32.7537 9.0649 33.0732 10.8769C33.3927 12.689 32.1847 14.4184 30.3694 14.7385Z" fill="#FFFDF9"/>
</svg>
