<svg width="124" height="236" viewBox="0 0 124 236" fill="none" xmlns="http://www.w3.org/2000/svg">
<g opacity="0.5">
<path fill-rule="evenodd" clip-rule="evenodd" d="M79.2106 49.7106C81.0783 47.0501 84.5442 40.2932 87.173 39.3425C88.8661 38.7302 88.3725 45.0643 88.3934 46.2721C88.4748 50.9448 88.0195 55.5879 87.4571 60.2213C86.4441 68.5778 83.1315 76.0199 78.5879 83.1321C76.25 86.7917 73.5077 90.4958 69.7095 92.7792C67.9612 93.8308 65.8575 94.0069 64.1309 94.9129C62.1201 95.9676 63.2152 95.115 62.309 97.2083C61.0505 100.115 60.648 103.864 60.0657 106.965C57.3922 121.202 50.9196 196.458 52.0417 210.939C52.1414 212.222 50.3499 212.529 50.2605 210.962C49.7852 202.654 53.8983 145.12 55.9735 126.304C58.0487 107.489 60.1487 90.8665 62.2543 84.3569C64.8088 76.4595 69.4223 66.9622 73.2627 59.5975C75.0465 56.176 76.9909 52.8724 79.2106 49.7106Z" fill="#69A1AC"/>
<path fill-rule="evenodd" clip-rule="evenodd" d="M93.0728 141.992C97.9329 138.427 103.193 145.155 98.7957 148.72C96.3644 150.691 93.8227 149.99 92.3918 148.347C91.463 149.479 90.5935 150.661 89.7582 151.66C87.213 154.704 84.8074 157.821 82.5083 161.011C77.7323 167.637 73.6394 174.637 69.36 181.51C65.1368 188.292 60.9474 195.11 57.1195 202.064C53.8767 207.956 49.5546 214.888 48.4443 221.347C50.1288 207.648 56.5207 194.48 64.1323 182.403C71.682 170.425 80.3462 157.344 92.0359 147.891C90.8462 146.143 90.8132 143.648 93.0728 141.992Z" fill="#C1DEE2"/>
<path fill-rule="evenodd" clip-rule="evenodd" d="M0.85031 108.581C3.56997 109.112 8.01388 115.259 10.2557 117.601C12.9199 120.384 15.3371 123.35 17.6155 126.458C22.5205 133.147 26.9072 140.259 30.6373 147.676C36.7184 159.767 41.5902 172.179 45.1259 185.346C47.2901 193.405 48.6914 201.759 49.5219 210.054C49.6788 211.618 51.3205 223.68 48.9548 224.005C46.8272 224.298 47.4843 214.846 47.3817 213.561C46.2214 199.057 42.7454 184.945 37.9105 171.274C36.8573 168.296 35.8789 164.649 34.1947 161.969C32.9819 160.038 34.186 160.711 32.0546 159.981C30.2244 159.353 28.1392 159.507 26.265 158.738C22.1936 157.07 18.9336 153.832 16.076 150.575C10.5226 144.245 6.12178 137.397 3.82784 129.285C2.55532 124.788 1.38594 120.265 0.737004 115.628C0.569136 114.43 -0.901406 108.239 0.85031 108.581Z" fill="#69A1AC"/>
<path fill-rule="evenodd" clip-rule="evenodd" d="M11.5831 6.31768C21.8275 24.0669 30.2459 43.564 35.6818 63.3117C38.9752 75.2765 41.2785 87.5542 43.5669 99.7432C47.1101 118.616 50.4616 137.488 51.415 156.697C52.3741 176.016 54.2707 198.299 47.9384 216.907C51.1014 198.015 48.09 177.906 47.5568 158.897C47.302 149.822 46.5636 140.836 45.595 131.814C44.6551 123.062 43.1195 114.352 41.6895 105.67C40.993 101.441 40.2614 97.2187 39.5166 92.9987C39.2942 91.7396 39.2003 88.0036 38.4009 87.1435C37.5963 86.2777 33.491 85.9248 32.2022 85.2896C29.6069 84.0101 27.1656 82.1927 25.0051 80.2724C20.8632 76.5912 17.2601 71.7812 14.4162 67.0397C7.83608 56.0686 5.20537 42.6799 5.33834 29.974C5.36389 27.5071 9.33507 0.942383 7.74018 0.576565C7.8362 0.464213 7.92704 0.348205 8.01269 0.227539C9.22015 2.24727 10.405 4.28069 11.5831 6.31768Z" fill="#89C5CC"/>
<path fill-rule="evenodd" clip-rule="evenodd" d="M122.154 70.332C122.312 70.1043 123.34 68.5202 122.822 68.6214C123.877 68.4153 121.372 70.3685 124 69.17C122.752 70.3474 123.472 71.8769 123.489 73.4615C123.516 76.0343 123.085 78.5859 122.6 81.1035C121.834 85.0829 120.692 88.9522 119.035 92.6536C115.423 100.72 109.289 108.485 102.008 113.528C98.4133 116.018 94.8904 116.865 90.7907 118.012C88.2012 118.736 87.9958 120.074 86.6213 122.585C83.7596 127.813 80.9489 133.023 78.4252 138.428C75.4117 144.882 72.4863 151.344 69.7268 157.912C60.4306 180.035 52.8643 202.955 48.8907 226.676C48.7935 212.697 52.0302 198.301 56.1131 184.977C59.0872 175.27 62.959 165.913 67.0886 156.65C68.0893 154.406 69.6057 151.519 70.0307 149.042C70.3282 147.306 69.4185 145.636 69.002 143.808C67.3782 136.687 67.4944 128.709 68.9204 121.55C70.4926 113.656 75.0394 109.992 82.7309 108.874C85.5438 108.465 89.1192 108.615 91.6985 107.417C94.5086 106.112 95.6679 101.823 97.2658 99.0698C101.558 91.6742 106.657 84.5813 112.513 78.3499C114.134 76.6243 115.878 75.0324 117.728 73.5568C118.894 72.6259 121.359 71.4789 122.154 70.332Z" fill="#89C5CC"/>
<path fill-rule="evenodd" clip-rule="evenodd" d="M34.1793 217.309C33.7336 214.29 36.0736 211.579 39.1257 211.579H59.9856C63.0378 211.579 65.3777 214.29 64.932 217.309L64.0155 223.518C62.957 230.688 56.8037 236 49.5557 236C42.3076 236 36.1543 230.688 35.0958 223.518L34.1793 217.309Z" fill="#C1DEE2"/>
</g>
</svg>
