<svg width="93" height="93" viewBox="0 0 93 93" fill="none" xmlns="http://www.w3.org/2000/svg">
<g clip-path="url(#clip0)">
<path d="M35.5627 54.1423L32.4316 47.3285C30.1206 42.3143 32.3152 36.3752 37.3327 34.0647L44.1411 30.9259L51.4588 46.8214L35.5627 54.1423ZM56.0033 44.7356L71.9015 37.4218L68.7634 30.6101C66.46 25.5905 60.5176 23.3953 55.5002 25.7058L48.6824 28.8395L56.0033 44.7356ZM37.6551 58.6881L44.9721 74.5869C47.8202 80.7788 53.44 84.8228 59.6804 85.9231C70.4607 87.824 80.9066 80.6421 82.8398 69.6779C83.5223 65.8077 83.0753 61.701 81.3089 57.8592L73.994 41.9676L37.6551 58.6881ZM26.9001 33.8769C29.0603 28.4022 27.1202 23.9713 25.9581 19.3899C23.9187 11.2995 33.2407 8.1301 36.8951 15.7572C37.3724 16.7553 42.0232 26.352 42.0232 26.352L46.4162 24.3003L41.2726 13.6588C39.2915 9.51857 35.9833 7.2801 32.5528 6.67522C25.6132 5.45158 19.488 11.818 21.1621 20.1181C22.0262 24.3931 24.2019 27.4879 22.3847 32.0924C20.8753 35.9116 15.2638 37.8669 10.7398 33.5016L7.36785 36.9992C14.4934 43.8676 24.1819 40.7696 26.9001 33.8769Z" fill="#4C4CBE" fill-opacity="0.2"/>
</g>
<defs>
<clipPath id="clip0">
<rect width="80" height="80" fill="white" transform="translate(13.8918) rotate(10)"/>
</clipPath>
</defs>
</svg>
