<svg width="80" height="80" viewBox="0 0 80 80" fill="none" xmlns="http://www.w3.org/2000/svg">
<path d="M54.1667 20C55.5467 20 56.6667 21.12 56.6667 22.5V54.1667C56.6667 55.5467 55.5467 56.6667 54.1667 56.6667H22.5C21.12 56.6667 20 55.5467 20 54.1667V22.5C20 21.12 21.12 20 22.5 20H54.1667ZM63.3333 20C63.3333 16.32 60.3467 13.3333 56.6667 13.3333H20C16.32 13.3333 13.3333 16.32 13.3333 20V56.6667C13.3333 60.3467 16.32 63.3333 20 63.3333H56.6667C60.3467 63.3333 63.3333 60.3467 63.3333 56.6667V20ZM26.6667 66.6667V76.6667H23.3333V66.6667H26.6667ZM40 66.6667V76.6667H36.6667V66.6667H40ZM46.6667 66.6667V76.6667H43.3333V66.6667H46.6667ZM33.3333 66.6667V76.6667H30V66.6667H33.3333ZM53.3333 66.6667V76.6667H50V66.6667H53.3333ZM26.6667 0V10H23.3333V0H26.6667ZM40 0V10H36.6667V0H40ZM46.6667 0V10H43.3333V0H46.6667ZM33.3333 0V10H30V0H33.3333ZM53.3333 0V10H50V0H53.3333ZM66.6667 50H76.6667V53.3333H66.6667V50ZM66.6667 36.6667H76.6667V40H66.6667V36.6667ZM66.6667 30H76.6667V33.3333H66.6667V30ZM66.6667 43.3333H76.6667V46.6667H66.6667V43.3333ZM66.6667 23.3333H76.6667V26.6667H66.6667V23.3333ZM0 50H10V53.3333H0V50ZM0 36.6667H10V40H0V36.6667ZM0 30H10V33.3333H0V30ZM0 43.3333H10V46.6667H0V43.3333ZM0 23.3333H10V26.6667H0V23.3333Z" fill="#4C4CBE" fill-opacity="0.2"/>
</svg>
