<svg width="80" height="80" viewBox="0 0 80 80" fill="none" xmlns="http://www.w3.org/2000/svg">
<path d="M6.66669 0V50H73.3334V0H6.66669ZM66.6667 43.3333H13.3334V6.66667H66.6667V43.3333ZM46.6667 53.3333L51.9967 60H28.0034L33.3334 53.3333H46.6667ZM6.66669 63.3333V80H73.3334V63.3333H6.66669ZM38.3334 73.6667C37.2267 73.6667 36.3334 72.77 36.3334 71.6667C36.3334 70.5633 37.23 69.6667 38.3334 69.6667C39.4367 69.6667 40.3334 70.5633 40.3334 71.6667C40.3334 72.77 39.44 73.6667 38.3334 73.6667ZM66.6667 73.3333H46.6667V70H66.6667V73.3333Z" fill="#4C4CBE" fill-opacity="0.2"/>
</svg>
