<svg width="103" height="103" viewBox="0 0 103 103" fill="none" xmlns="http://www.w3.org/2000/svg">
<g clip-path="url(#clip0)">
<path d="M21.074 26.7858L24.9733 26.0867C26.4208 33.5234 30.3228 33.0752 36.704 32.0119C41.6135 31.1934 47.2172 30.3918 50.2521 38.73L50.9806 40.7315L47.2751 42.0802L46.5466 40.0787C44.7726 35.2048 42.9807 34.9596 37.349 35.899C28.7111 37.3403 22.9333 36.2117 21.074 26.7858ZM93.4165 50.1169C97.1924 60.4911 92.0909 71.8829 82.0112 75.5517C77.2783 77.2743 72.293 76.9782 67.9452 75.1198C62.4376 72.7648 56.3869 75.3112 53.7365 80.4261C51.591 84.5699 47.9943 87.9328 43.3272 89.6315C33.2505 93.2991 22.017 87.8528 18.2411 77.4785C14.4652 67.1043 19.5697 55.7114 29.6464 52.0438L69.0055 37.7431C78.9043 34.5517 89.7249 39.9745 93.4165 50.1169ZM45.2918 64.0856L39.0272 66.3658L36.747 60.1011L30.4824 62.3813L32.7625 68.6459L26.4979 70.926L28.7781 77.1907L35.0427 74.9105L37.3228 81.1751L43.5874 78.895L41.3073 72.6304L47.5719 70.3503L45.2918 64.0856ZM58.9611 62.6577L52.6965 64.9378L53.8365 68.0701L60.1011 65.79L58.9611 62.6577ZM69.2102 51.8328C69.8395 53.5618 71.7504 54.4555 73.4826 53.825C75.2147 53.1946 76.1041 51.2817 75.4748 49.5527C74.8455 47.8236 72.9346 46.93 71.2024 47.5604C69.4702 48.1909 68.5809 50.1038 69.2102 51.8328ZM71.4903 58.0974C70.861 56.3684 68.9501 55.4747 67.2179 56.1052C65.4858 56.7356 64.5964 58.6485 65.2257 60.3775C65.855 62.1066 67.7659 63.0002 69.4981 62.3698C71.2302 61.7393 72.1196 59.8264 71.4903 58.0974ZM80.0351 62.0819C79.4057 60.3529 77.4948 59.4592 75.7627 60.0896C74.0305 60.7201 73.1411 62.633 73.7704 64.362C74.3998 66.0911 76.3107 66.9847 78.0428 66.3543C79.775 65.7238 80.6644 63.8109 80.0351 62.0819ZM84.0195 53.5371C83.3902 51.8081 81.4793 50.9144 79.7472 51.5449C78.015 52.1754 77.1256 54.0882 77.7549 55.8173C78.3842 57.5463 80.2951 58.44 82.0273 57.8095C83.7595 57.1791 84.6489 55.2662 84.0195 53.5371Z" fill="#4C4CBE" fill-opacity="0.2"/>
</g>
<defs>
<clipPath id="clip0">
<rect width="80" height="80" fill="white" transform="translate(0 27.3616) rotate(-20)"/>
</clipPath>
</defs>
</svg>
