<svg width="93" height="93" viewBox="0 0 93 93" fill="none" xmlns="http://www.w3.org/2000/svg">
<g clip-path="url(#clip0)">
<path d="M78.5863 37.2673L84.3746 70.0942L18.7208 81.6707L12.9325 48.8438L78.5863 37.2673ZM83.9941 29.5442L5.20944 43.4361L13.313 89.3938L92.0976 75.5019L83.9941 29.5442ZM26.6421 49.8112L16.794 51.5477L17.9517 58.1131L27.7997 56.3766L26.6421 49.8112ZM36.4902 48.0747L29.9248 49.2324L31.0824 55.7978L37.6478 54.6401L36.4902 48.0747ZM46.3382 46.3382L39.7728 47.4959L40.9305 54.0613L47.4959 52.9036L46.3382 46.3382ZM56.1863 44.6018L49.6209 45.7594L50.7786 52.3248L57.344 51.1671L56.1863 44.6018ZM66.0344 42.8653L59.469 44.0229L60.6267 50.5883L67.192 49.4307L66.0344 42.8653ZM75.8825 41.1288L69.3171 42.2865L70.4747 48.8518L77.0401 47.6942L75.8825 41.1288ZM66.2247 63.1403L33.3977 68.9285L34.5554 75.4939L67.3823 69.7056L66.2247 63.1403ZM77.6189 50.9769L64.4882 53.2922L65.6458 59.8576L78.7766 57.5423L77.6189 50.9769ZM31.6613 59.0805L18.5305 61.3958L19.6881 67.9612L32.8189 65.6458L31.6613 59.0805ZM41.5093 57.344L34.9439 58.5016L36.1016 65.067L42.667 63.9094L41.5093 57.344ZM51.3574 55.6075L44.792 56.7652L45.9497 63.3305L52.5151 62.1729L51.3574 55.6075ZM61.2055 53.871L54.6401 55.0287L55.7978 61.5941L62.3631 60.4364L61.2055 53.871ZM41.2233 24.1832C37.7943 24.6423 33.6463 25.2281 30.62 22.5767C29.0468 21.199 28.0125 19.1914 27.6009 16.8574C27.3567 15.4721 27.3322 13.9702 27.5527 12.4183L31.7218 12.9119C31.4158 15.1118 31.7104 18.0113 33.4753 19.555C35.2766 21.1328 38.3412 20.43 41.613 20.0968C48.7118 19.3731 52.3832 23.0142 53.1097 27.134C53.3765 28.6473 53.245 30.2241 52.7418 31.6701L47.5912 32.5783C50.4611 29.3509 49.5013 23.0824 41.2233 24.1832Z" fill="#4C4CBE" fill-opacity="0.2"/>
</g>
<defs>
<clipPath id="clip0">
<rect width="80" height="80" fill="white" transform="translate(0 13.8918) rotate(-10)"/>
</clipPath>
</defs>
</svg>
